<svg xmlns="http://www.w3.org/2000/svg" version="1.1" xmlns:xlink="http://www.w3.org/1999/xlink" xmlns:svgjs="http://svgjs.dev/svgjs" width="2000" height="1247" viewBox="0 0 2000 1247"><g transform="matrix(1,0,0,1,-1.2121212121212466,0.504858299595071)"><svg viewBox="0 0 396 247" data-background-color="#ffffff" preserveAspectRatio="xMidYMid meet" height="1247" width="2000" xmlns="http://www.w3.org/2000/svg" xmlns:xlink="http://www.w3.org/1999/xlink"><g id="tight-bounds" transform="matrix(1,0,0,1,0.2400000000000091,-0.09999999999999432)"><svg viewBox="0 0 395.52 247.2" height="247.2" width="395.52"><g><svg viewBox="0 0 395.52 247.2" height="247.2" width="395.52"><g transform="matrix(1,0,0,1,81.77516587677725,0)"><svg viewBox="0 0 231.96966824644548 247.2" height="247.2" width="231.96966824644548"><g><svg viewBox="0 0 231.96966824644548 247.2" height="247.2" width="231.96966824644548"><g><svg viewBox="0 0 231.96966824644548 247.2" height="247.2" width="231.96966824644548"><g><svg viewBox="0 0 231.96966824644548 247.2" height="247.2" width="231.96966824644548"><g id="textblocktransform"><svg viewBox="0 0 231.96966824644548 247.2" height="247.2" width="231.96966824644548" id="textblock"><g><svg viewBox="0 0 231.96966824644548 247.2" height="247.2" width="231.96966824644548"><g transform="matrix(1,0,0,1,0,0)"><svg width="231.96966824644548" viewBox="-2.6 -34.55 40.6 43.2" height="247.2" data-palette-color="#d7dbde"><path d="M34-26.5L34-26.5Q34-24.85 31.9-24.1L31.9-24.1Q30.4-23.5 28.4-23.5 26.4-23.5 24.2-24.05L24.2-24.05Q21.9-24.5 20.35-25.6L20.35-25.6Q20.25-25.7 20.25-25.8 20.25-25.9 20.38-25.9 20.5-25.9 20.55-25.85L20.55-25.85Q23.3-24.05 28.3-24.05L28.3-24.05Q30-24.05 31.4-24.68 32.8-25.3 32.8-26.55L32.8-26.55Q32.8-28.35 30.2-29.25L30.2-29.25Q28.4-29.9 26.15-29.9L26.15-29.9Q19.9-29.9 17.6-25.85L17.6-25.85Q16.9-24.6 16.9-23.25L16.9-23.25Q16.9-20.2 20.3-17.9L20.3-17.9Q22.55-16.4 26.55-13.9L26.55-13.9Q29.9-11.15 29.9-7.05L29.9-7.05Q29.9-1.5 24.2 1.85L24.2 1.85Q19.45 4.65 14.03 4.65 8.6 4.65 5.4 2.75L5.4 2.75Q1.4 0.45 1.4-3.93 1.4-8.3 4.63-11.08 7.85-13.85 12.1-13.85L12.1-13.85Q14.45-13.85 14.45-13.45L14.45-13.45Q14.45-13.35 13.65-13.35 12.85-13.35 12.8-13.35L12.8-13.35Q8.75-13.35 5.8-10.95L5.8-10.95Q2.65-8.5 2.65-4.38 2.65-0.25 5.5 2.02 8.35 4.3 12.2 4.3 16.05 4.3 20.4 2.5L20.4 2.5Q27.9-0.5 27.9-6.85L27.9-6.85Q27.9-10.75 24.45-13.15L24.45-13.15Q23.35-13.95 21.2-15.3 19.05-16.65 18.15-17.25L18.15-17.25Q14.75-19.55 14.75-22.85L14.75-22.85Q14.75-25.05 16.4-26.85L16.4-26.85Q14.9-26.7 13.85-25.4L13.85-25.4Q12.85-24 12.85-22.5L12.85-22.5Q12.85-19.05 16.1-16.6L16.1-16.6Q17.15-15.8 22.1-12.45L22.1-12.45Q25.3-9.8 25.3-6.25 25.3-2.7 21.8 0.33 18.3 3.35 14.65 3.35L14.65 3.35Q14.4 3.35 14.4 3.2L14.4 3.2Q14.4 2.9 14.75 2.9L14.75 2.9Q16.3 2.7 17.4 2.35L17.4 2.35Q20.1 1.25 22.25-1.15 24.4-3.55 24.4-6.2L24.4-6.2Q24.4-9.9 21.25-12.25L21.25-12.25Q20.3-13 18.32-14.33 16.35-15.65 15.4-16.35L15.4-16.35Q12.2-18.7 12.2-22.45L12.2-22.45Q12.2-24.3 13.5-25.73 14.8-27.15 16.6-27.15L16.6-27.15 16.7-27.15Q20.25-30.55 25.85-30.55 31.45-30.55 33.4-28.1L33.4-28.1Q34-27.35 34-26.5Z" opacity="1" transform="matrix(1,0,0,1,0,0)" fill="#ffffff" class="wordmark-text-0" data-fill-palette-color="primary" id="text-0"></path></svg></g></svg></g></svg></g></svg></g></svg></g></svg></g></svg></g></svg></g><defs></defs></svg><rect width="395.52" height="247.2" fill="none" stroke="none" visibility="hidden"></rect></g></svg></g></svg>